<?xml version="1.0" encoding="UTF-8"?>
<svg id="Layer_1" xmlns="http://www.w3.org/2000/svg" version="1.1" viewBox="0 0 500 500">
  <!-- Generator: Adobe Illustrator 30.1.0, SVG Export Plug-In . SVG Version: 2.1.1 Build 136)  -->
  <defs>
    <style>
      .st0 {
        fill: #04c8c7;
      }

      .st1 {
        fill: #5263d8;
      }
    </style>
  </defs>
  <path class="st1" d="M336.39,42.61c-74.6-31.07-156.53-18.7-217.73,25.38,13.72,7.04,24.58,18.84,30.39,33.23,48.53-32.86,112.11-41.51,170.14-17.34,72.53,30.21,114.81,102.68,110.34,177.02-.57,9.39,5.02,18.08,13.71,21.69h0c14.13,5.89,29.97-3.86,30.88-19.14,5.52-92.76-47.23-183.15-137.74-220.85Z"/>
  <path class="st0" d="M354.07,396.6c-48.89,34.64-113.98,44.2-173.26,19.51-75.47-31.44-118.17-108.62-109.54-186.06,1.09-9.77-4.55-19.05-13.62-22.83l-.04-.02c-13.84-5.77-29.18,3.5-30.81,18.4-10.53,96.51,42.77,192.6,136.82,231.78,77.02,32.08,161.87,17.86,223.63-29.77-14.46-5.98-26.26-17.07-33.17-31.02Z"/>
  <circle class="st1" cx="89.28" cy="125.37" r="54.4"/>
  <circle class="st0" cx="411.86" cy="368.03" r="54.4"/>
</svg>