<?xml version="1.0" encoding="UTF-8"?>
<svg id="Layer_1" xmlns="http://www.w3.org/2000/svg" version="1.1" viewBox="0 0 966.64 259.72">
  <!-- Generator: Adobe Illustrator 30.1.0, SVG Export Plug-In . SVG Version: 2.1.1 Build 136)  -->
  <defs>
    <style>
      .st0 {
        fill: #121a34;
      }

      .st1 {
        fill: #04c8c7;
      }

      .st2 {
        fill: #5263d8;
      }
    </style>
  </defs>
  <g>
    <path class="st0" d="M554.95,135.12c16.4,8.5,35.79,3.33,47.65-10.88l13.98,12.1c-14.01,18.9-38.5,25.96-60.81,19.72-31.28-8.75-45.69-42.03-35.14-72.44,6.94-20.02,24.81-33.42,45.7-34.84,27.94-1.91,51.22,16.94,54.24,44.72.6,5.55.36,10.75.18,16.89-6.45-.11-12.68,1.18-19.3.72-10.02-.7-19.55-.34-29.42-.3-11.21.04-21.93-.87-33.48.25,1.01,10.54,7.07,19.22,16.4,24.06h0ZM599.73,93.55c-.27-9.54-5.01-16.49-12.07-21.19-9.16-6.1-20.93-6.95-31.51-1.97-8.37,3.94-16.26,12.03-17.55,23.19l61.13-.04h0Z"/>
    <path class="st0" d="M323.75,68.08c-14.18.99-26.28,12.64-26.36,26.73l-.35,61.23c-7.23.25-13.87.53-20.9-.02l.02-104.77c6.71-.65,13.34-.24,20.34-.22l1.48,12.82c9.13-10.67,20.89-15.46,34.48-15.13,23.67.58,39.83,19.35,39.83,41.12v66c-6.83.72-13.27.39-20.27.21l-.17-59.32c-.01-3.81-1.06-7.7-1.92-11.11-3-11.95-13.16-18.45-26.18-17.55h0Z"/>
    <path class="st0" d="M421.53,93.5l-.68,52.1-.66,10.3-20.01.35-.08-104.9c6.78-1.4,13.44-1.09,20.13-.65l.64,13.55c14.06-18.91,45.46-20.18,61.25-6,8.47,7.61,13.75,18.73,13.76,30.49l.1,67.44-20.12-.16-.72-65.23c-.16-14.16-11.25-22.63-24.72-22.8-14.79-.18-28.7,9.41-28.91,25.52h.02Z"/>
    <path class="st0" d="M895.18,143.2c-17.79,22.35-58.14,18.48-74.75-3.84,3.78-5.04,8.04-9.49,12.92-14.14,9.48,12.3,24.38,16.93,38.34,12.2,5.76-1.95,8.89-6.48,8.6-12.1s-4.41-8.89-10.08-10.63l-24.39-7.47c-6.91-2.12-13.03-6.45-17.07-12.61-5.14-7.84-5.32-17.83-1.36-27.05,10.42-24.24,52.2-24.39,69.94-4.06-3.47,4.51-7.04,9.28-11.86,13.07-9.27-7.86-21.03-11.87-32.28-7.5-4.24,1.65-6.9,4.57-7.26,8.25-1.94,19.73,36.31,10.72,51,32.11,6.85,9.98,5.67,24.44-1.75,33.77h0Z"/>
    <path class="st0" d="M41.88,92.94c-5.73,21.15,5.89,41.61,25.26,45.42,27.23,5.35,34.28-18.13,38.46-13.71,3.96,4.18,7.98,7.69,11.88,12.32-11.26,14.4-28.12,22.17-46.29,21.21-17.26-.92-34.14-9.71-43.71-25.32-10.19-16.63-11.38-37.21-2-55.04,8.28-15.74,24.68-27.71,43.92-28.93s36.36,5.27,47.25,20.61c-4.48,4.85-8.42,9.04-13.34,13.25-6.53-7.38-14.17-12.87-23.7-14.33-17.3-2.65-33.14,7.58-37.73,24.51h0Z"/>
    <path class="st0" d="M674.87,135.12c15.94,8.62,34.28,2.9,44.66-11.82,5.54,4.21,9.29,8.81,14.3,13.79-12.16,15.29-30.33,22.84-49.89,20.81-30.92-3.22-53.34-31.9-47.47-64.41,4.85-26.89,27.82-45.24,55.05-44.71,16.79.33,32.1,7.82,41.76,21.21l-14.03,12.82c-9-11.69-21.98-17.11-36.6-13.93-15.58,3.38-25.89,17.83-25.93,33.88-.03,13.31,5.9,25.74,18.15,32.36Z"/>
    <path class="st0" d="M808.12,136.29c.17,5.92.79,12.07-.18,18.14-.31,1.96-24.23,9.29-37.68-4.17-6.03-6.03-8.28-14.18-8.29-22.46l-.07-58.29-18.48-.57-.45-17.49c6.26-1.87,12.14-.81,18.71-.46l.53-31.23,19.41-1.84.33,29.91c.06,5.19,18.18.93,24.75,3.58l.18,17.52-24.95.52-.11,57.34c-.01,5.22,2.78,10.56,7.94,11.84,6.09,1.52,11.69-.27,18.34-2.34h.02Z"/>
    <circle class="st2" cx="939.55" cy="140.22" r="16.82"/>
  </g>
  <g>
    <path class="st2" d="M215.31,46.88c-20-8.33-41.97-5.01-58.37,6.81,3.68,1.89,6.59,5.05,8.15,8.91,13.01-8.81,30.06-11.13,45.62-4.65,19.45,8.1,30.78,27.53,29.58,47.46-.15,2.52,1.35,4.85,3.68,5.82h0c3.79,1.58,8.04-1.04,8.28-5.13,1.48-24.87-12.66-49.1-36.93-59.21h0Z"/>
    <path class="st1" d="M220.05,141.78c-13.11,9.29-30.56,11.85-46.45,5.23-20.23-8.43-31.68-29.12-29.37-49.88.29-2.62-1.22-5.11-3.65-6.12h0c-3.71-1.55-7.82.93-8.26,4.93-2.82,25.87,11.47,51.64,36.68,62.14,20.65,8.6,43.4,4.79,59.96-7.98-3.88-1.6-7.04-4.58-8.89-8.32h-.01Z"/>
    <circle class="st2" cx="149.06" cy="69.06" r="14.58"/>
    <circle class="st1" cx="235.54" cy="134.12" r="14.58"/>
  </g>
  <g>
    <path d="M604.5,214.14c0,4.12.13,7.64.32,10.74h-6.3l-.38-6.42h-.2c-1.81,3.16-5.96,7.31-12.99,7.31-6.14,0-13.51-3.44-13.51-17.2v-22.93h7.1v21.68c0,7.47,2.33,12.56,8.77,12.56,4.78,0,8.12-3.35,9.44-6.55.37-1.03.65-2.3.65-3.66v-24.03h7.1v28.5Z"/>
    <path d="M616.4,196.24c0-4.09-.13-7.35-.33-10.6h6.31l.39,6.45h.2c1.93-3.69,6.49-7.34,12.97-7.34,5.39,0,13.83,3.24,13.83,16.72v23.41h-7.1v-22.62c0-6.34-2.39-11.66-9.07-11.66-4.68,0-8.33,3.33-9.61,7.32-.3.87-.49,2.14-.49,3.31v23.64h-7.1v-28.64h0Z"/>
    <path d="M669.4,174.55c0,2.43-1.7,4.43-4.54,4.43-2.58,0-4.31-2.01-4.31-4.43s1.82-4.44,4.44-4.44,4.39,1.95,4.41,4.44ZM661.43,224.88v-39.24h7.1v39.24h-7.1Z"/>
    <path d="M683.16,185.64l7.7,22c1.32,3.64,2.34,6.88,3.21,10.13h.21c.9-3.26,2.02-6.52,3.28-10.13l7.68-22h7.46l-15.44,39.24h-6.81l-14.94-39.24h7.65Z"/>
    <path d="M722.62,206.55c.14,9.64,6.26,13.62,13.43,13.62,5.11,0,8.23-.92,10.87-2.01l1.25,5.07c-2.5,1.14-6.86,2.5-13.09,2.5-12.06,0-19.31-8.03-19.31-19.8s7-21.18,18.46-21.18c12.8,0,16.15,11.23,16.15,18.45,0,1.5-.08,2.57-.24,3.35h-27.52ZM743.51,201.41c.07-4.5-1.84-11.55-9.84-11.55-7.28,0-10.39,6.58-10.96,11.55h20.8Z"/>
    <path d="M759.26,197.86c0-4.63-.12-8.58-.32-12.22h6.25l.27,7.7h.25c1.83-5.26,6.16-8.59,10.93-8.59.77,0,1.33.05,1.98.2v6.71c-.73-.15-1.45-.21-2.43-.21-5.03,0-8.58,3.79-9.55,9.13-.18,1-.29,2.17-.29,3.33v20.96h-7.1v-27.02h0Z"/>
    <path d="M784.8,217.61c2.15,1.34,5.9,2.79,9.46,2.79,5.21,0,7.62-2.56,7.62-5.84s-2.08-5.23-7.29-7.18c-7.09-2.57-10.45-6.42-10.43-11.13,0-6.32,5.13-11.5,13.57-11.5,3.99,0,7.43,1.08,9.61,2.41l-1.77,5.19c-1.51-.95-4.38-2.31-8.05-2.31-4.21,0-6.5,2.43-6.5,5.39,0,3.25,2.31,4.7,7.45,6.69,6.76,2.52,10.28,5.93,10.29,11.79,0,6.95-5.4,11.82-14.67,11.82-4.3,0-8.27-1.11-11.03-2.73l1.73-5.38h.01Z"/>
    <path d="M825.91,174.55c0,2.43-1.7,4.43-4.54,4.43-2.58,0-4.31-2.01-4.31-4.43s1.82-4.44,4.44-4.44,4.39,1.95,4.41,4.44ZM817.94,224.88v-39.24h7.1v39.24h-7.1Z"/>
    <path d="M845.48,174.34v11.3h10.25v5.41h-10.25v21.15c0,4.89,1.41,7.65,5.4,7.65,1.85,0,3.2-.23,4.13-.52l.33,5.42c-1.39.55-3.6.98-6.38.98-3.28,0-6-1.08-7.7-3.02-1.97-2.16-2.77-5.62-2.77-10.24v-21.43h-6.08v-5.41h6.08v-9.45l6.99-1.84h0Z"/>
    <path d="M867.08,185.64l8.57,23.19c.92,2.59,1.88,5.67,2.52,8.01h.2c.7-2.31,1.57-5.32,2.5-8.16l7.76-23.03h7.57l-10.74,27.95c-5.08,13.49-8.58,20.36-13.44,24.61-3.53,3.05-7.01,4.26-8.75,4.58l-1.77-5.96c1.79-.57,4.11-1.68,6.25-3.49,1.92-1.56,4.31-4.32,5.97-7.95.36-.75.55-1.28.55-1.72,0-.4-.12-.97-.5-1.83l-14.47-36.19h7.78Z"/>
  </g>
</svg>